Coordinates
version=1
nRows=6
nColumns=36
inDegrees=yes

Units are S.I. units (second, meters, Newtons, ...)
If the header above contains a line with 'inDegrees', this indicates whether rotational values are in degrees (yes) or radians (no).

endheader
time	pelvis_tilt	pelvis_list	pelvis_rotation	pelvis_tx	pelvis_ty	pelvis_tz	hip_flexion_r	hip_adduction_r	hip_rotation_r	knee_angle_r	knee_angle_r_beta	ankle_angle_r	subtalar_angle_r	mtp_angle_r	hip_flexion_l	hip_adduction_l	hip_rotation_l	knee_angle_l	knee_angle_l_beta	ankle_angle_l	subtalar_angle_l	mtp_angle_l	lumbar_extension	lumbar_bending	lumbar_rotation	arm_flex_r	arm_add_r	arm_rot_r	elbow_flex_r	pro_sup_r	arm_flex_l	arm_add_l	arm_rot_l	elbow_flex_l	pro_sup_l
      2.90000000	    -33.96174501	     -2.37800398	     -0.07764379	      0.88596710	      0.72912105	      0.07590665	     78.89553149	    -15.76558972	    -10.29732880	     69.85805052	      1.21925299	     24.70165324	    -16.34609059	     -7.49999987	     82.33746162	    -17.16694162	      0.03729380	     69.88973739	      1.21980603	     18.42861895	    -17.39046560	     -7.49999987	    -19.77837907	      0.54139185	      8.04617791	     57.25594998	    -10.74905383	     74.41645093	    126.98055552	     89.53900182	     67.66934066	     -2.89888154	     72.88589421	    122.65984701	    102.86031833
      2.91666670	    -33.62087366	     -2.26145061	     -0.07828193	      0.88710191	      0.74132757	      0.07599294	     76.90908406	    -15.68311538	    -11.10611326	     67.24114350	      1.17357935	     23.63962330	    -15.98489077	     -7.49999987	     80.23791105	    -17.11166918	     -0.67424251	     67.33196300	      1.17516445	     17.30294974	    -17.15980412	     -7.49999987	    -19.11734297	      0.42189587	      7.92875548	     56.76054814	    -10.84625413	     74.39075263	    126.72489694	     89.45087921	     67.08556410	     -2.98275362	     72.68890570	    122.21281827	    102.73788238
      2.93333330	    -33.01710902	     -2.08552463	      0.05967193	      0.88715617	      0.74754017	      0.07600360	     74.87044643	    -15.70185108	    -11.70792455	     64.89550277	      1.13264019	     22.55515435	    -16.01515752	     -7.49999987	     77.96864170	    -16.92647404	     -1.42966219	     64.89271405	      1.13259152	     15.79586583	    -17.49133277	     -7.49999987	    -18.31936975	      0.17198827	      7.58083243	     56.77683798	    -10.30335151	     73.10138138	    127.53063439	     86.58294080	     66.90807561	     -2.68885316	     71.74634825	    122.97827786	    100.26482882
      2.95000000	    -32.13623773	     -1.92664352	      0.14428597	      0.88826734	      0.76103578	      0.07649798	     72.46156607	    -15.64701485	    -12.36576236	     62.44506669	      1.08987202	     21.37608878	    -15.80091289	     -7.49999987	     75.33533139	    -16.72461378	     -2.10134837	     62.34252103	      1.08808226	     14.42651810	    -17.87557766	     -7.49999987	    -18.20554516	     -0.04457331	      7.35384588	     57.12410804	    -10.48424513	     73.57341960	    127.88027857	     85.69602742	     67.04445013	     -2.70568832	     71.37252003	    123.14647136	     99.04443456
      2.96666670	    -31.51973212	     -1.90598637	      0.17654003	      0.90059128	      0.77712780	      0.07649329	     69.75980573	    -15.44052237	    -13.37207908	     59.43704423	      1.03737212	     20.43415180	    -15.33939059	     -7.49999987	     72.45453815	    -16.61147648	     -2.85564067	     59.14910090	      1.03234656	     13.41433553	    -17.43054180	     -7.49999987	    -17.44612557	     -0.10178755	      7.06051510	     55.84303260	     -9.81856029	     73.04085134	    127.97794292	     84.93713193	     65.68626945	     -3.03715013	     71.63710567	    123.25849434	     97.53050563
      2.98333330	    -30.25555257	     -1.80754213	      0.39673511	      0.90163897	      0.79291297	      0.07544183	     66.26862668	    -15.37769958	    -14.36662878	     56.16550071	      0.98027291	     18.85044572	    -15.27463745	     -7.49999987	     68.76648827	    -16.15706768	     -3.56009205	     55.65238047	      0.97131728	     11.24685227	    -18.08803987	     -7.49999987	    -18.01158485	     -0.23142987	      6.79331580	     55.10851625	    -10.03344425	     72.26475834	    128.43734370	     91.01382344	     64.58039204	     -2.75120102	     70.81299636	    123.28419686	    104.88944278
